<svg width="206" height="34" viewBox="0 0 206 34" fill="none" xmlns="http://www.w3.org/2000/svg">
<rect x="0.5" y="0.5" width="205" height="33" rx="9.5" fill="white" stroke="black"/>
<path d="M22.676 20H21.488L19.532 12.8H19.508L17.528 20H16.34L14.144 11.432H15.308L16.988 18.56H17.012L18.932 11.432H20.168L22.064 18.56H22.088L23.828 11.432H24.968L22.676 20ZM26.0454 11.432H31.9614V12.392H27.1854V15.116H31.6374V16.076H27.1854V19.04H31.9974V20H26.0454V11.432ZM34.5213 15.116H36.8013C37.4493 15.116 37.9133 15.004 38.1933 14.78C38.4813 14.548 38.6253 14.204 38.6253 13.748C38.6253 13.444 38.5773 13.204 38.4813 13.028C38.3853 12.852 38.2533 12.716 38.0853 12.62C37.9173 12.524 37.7213 12.464 37.4973 12.44C37.2813 12.408 37.0493 12.392 36.8013 12.392H34.5213V15.116ZM33.3813 11.432H36.4893C36.6733 11.432 36.8693 11.436 37.0773 11.444C37.2933 11.444 37.5053 11.456 37.7133 11.48C37.9213 11.496 38.1133 11.524 38.2893 11.564C38.4733 11.604 38.6293 11.664 38.7573 11.744C39.0373 11.912 39.2733 12.144 39.4653 12.44C39.6653 12.736 39.7653 13.1 39.7653 13.532C39.7653 13.988 39.6533 14.384 39.4293 14.72C39.2133 15.048 38.9013 15.292 38.4933 15.452V15.476C39.0213 15.588 39.4253 15.828 39.7053 16.196C39.9853 16.564 40.1253 17.012 40.1253 17.54C40.1253 17.852 40.0693 18.156 39.9573 18.452C39.8453 18.748 39.6773 19.012 39.4533 19.244C39.2373 19.468 38.9653 19.652 38.6373 19.796C38.3173 19.932 37.9453 20 37.5213 20H33.3813V11.432ZM34.5213 19.04H37.3773C37.8813 19.04 38.2733 18.904 38.5533 18.632C38.8413 18.36 38.9853 17.984 38.9853 17.504C38.9853 17.224 38.9333 16.992 38.8293 16.808C38.7253 16.624 38.5853 16.48 38.4093 16.376C38.2413 16.264 38.0453 16.188 37.8213 16.148C37.5973 16.1 37.3653 16.076 37.1253 16.076H34.5213V19.04ZM46.076 19.04H47.972C48.1 19.04 48.26 19.032 48.452 19.016C48.644 18.992 48.848 18.944 49.064 18.872C49.28 18.792 49.492 18.68 49.7 18.536C49.916 18.392 50.108 18.196 50.276 17.948C50.444 17.7 50.58 17.392 50.684 17.024C50.796 16.648 50.852 16.196 50.852 15.668C50.852 15.156 50.8 14.7 50.696 14.3C50.6 13.892 50.436 13.548 50.204 13.268C49.98 12.98 49.688 12.764 49.328 12.62C48.968 12.468 48.524 12.392 47.996 12.392H46.076V19.04ZM44.936 11.432H47.876C49.196 11.432 50.212 11.768 50.924 12.44C51.636 13.112 51.992 14.136 51.992 15.512C51.992 16.232 51.912 16.872 51.752 17.432C51.592 17.984 51.344 18.452 51.008 18.836C50.672 19.212 50.244 19.5 49.724 19.7C49.204 19.9 48.588 20 47.876 20H44.936V11.432ZM53.3852 11.432H59.3012V12.392H54.5252V15.116H58.9772V16.076H54.5252V19.04H59.3372V20H53.3852V11.432ZM65.6772 13.94C65.6132 13.324 65.3892 12.88 65.0052 12.608C64.6292 12.328 64.1452 12.188 63.5532 12.188C63.3132 12.188 63.0772 12.212 62.8452 12.26C62.6132 12.308 62.4052 12.388 62.2212 12.5C62.0452 12.612 61.9012 12.764 61.7892 12.956C61.6852 13.14 61.6332 13.372 61.6332 13.652C61.6332 13.916 61.7092 14.132 61.8612 14.3C62.0212 14.46 62.2292 14.592 62.4852 14.696C62.7492 14.8 63.0452 14.888 63.3732 14.96C63.7012 15.024 64.0332 15.096 64.3692 15.176C64.7132 15.256 65.0492 15.352 65.3772 15.464C65.7052 15.568 65.9972 15.712 66.2532 15.896C66.5172 16.08 66.7252 16.312 66.8772 16.592C67.0372 16.872 67.1172 17.224 67.1172 17.648C67.1172 18.104 67.0132 18.496 66.8052 18.824C66.6052 19.144 66.3452 19.408 66.0252 19.616C65.7052 19.816 65.3452 19.96 64.9452 20.048C64.5532 20.144 64.1612 20.192 63.7692 20.192C63.2892 20.192 62.8332 20.132 62.4012 20.012C61.9772 19.892 61.6012 19.712 61.2732 19.472C60.9532 19.224 60.6972 18.912 60.5052 18.536C60.3212 18.152 60.2292 17.7 60.2292 17.18H61.3092C61.3092 17.54 61.3772 17.852 61.5132 18.116C61.6572 18.372 61.8412 18.584 62.0652 18.752C62.2972 18.92 62.5652 19.044 62.8692 19.124C63.1732 19.204 63.4852 19.244 63.8052 19.244C64.0612 19.244 64.3172 19.22 64.5732 19.172C64.8372 19.124 65.0732 19.044 65.2812 18.932C65.4892 18.812 65.6572 18.652 65.7852 18.452C65.9132 18.252 65.9772 17.996 65.9772 17.684C65.9772 17.388 65.8972 17.148 65.7372 16.964C65.5852 16.78 65.3772 16.632 65.1132 16.52C64.8572 16.4 64.5652 16.304 64.2372 16.232C63.9092 16.16 63.5732 16.088 63.2292 16.016C62.8932 15.936 62.5612 15.848 62.2332 15.752C61.9052 15.648 61.6092 15.516 61.3452 15.356C61.0892 15.188 60.8812 14.976 60.7212 14.72C60.5692 14.456 60.4932 14.128 60.4932 13.736C60.4932 13.304 60.5812 12.932 60.7572 12.62C60.9332 12.3 61.1652 12.04 61.4532 11.84C61.7492 11.632 62.0812 11.48 62.4492 11.384C62.8252 11.28 63.2092 11.228 63.6012 11.228C64.0412 11.228 64.4492 11.28 64.8252 11.384C65.2012 11.488 65.5292 11.652 65.8092 11.876C66.0972 12.1 66.3212 12.384 66.4812 12.728C66.6492 13.064 66.7412 13.468 66.7572 13.94H65.6772ZM68.5504 11.432H69.6904V20H68.5504V11.432ZM78.0159 18.932C77.6799 19.38 77.2639 19.704 76.7679 19.904C76.2719 20.096 75.7719 20.192 75.2679 20.192C74.6279 20.192 74.0559 20.076 73.5519 19.844C73.0479 19.604 72.6199 19.284 72.2679 18.884C71.9159 18.484 71.6479 18.024 71.4639 17.504C71.2799 16.984 71.1879 16.444 71.1879 15.884C71.1879 15.26 71.2719 14.668 71.4399 14.108C71.6159 13.54 71.8719 13.044 72.2079 12.62C72.5519 12.196 72.9759 11.86 73.4799 11.612C73.9919 11.356 74.5879 11.228 75.2679 11.228C75.7319 11.228 76.1679 11.284 76.5759 11.396C76.9919 11.5 77.3599 11.668 77.6799 11.9C78.0079 12.132 78.2799 12.428 78.4959 12.788C78.7199 13.14 78.8719 13.568 78.9519 14.072H77.8119C77.7559 13.744 77.6519 13.464 77.4999 13.232C77.3479 12.992 77.1599 12.796 76.9359 12.644C76.7119 12.492 76.4559 12.38 76.1679 12.308C75.8879 12.228 75.5879 12.188 75.2679 12.188C74.7479 12.188 74.2999 12.292 73.9239 12.5C73.5559 12.708 73.2519 12.984 73.0119 13.328C72.7799 13.664 72.6079 14.052 72.4959 14.492C72.3839 14.924 72.3279 15.368 72.3279 15.824C72.3279 16.272 72.3919 16.704 72.5199 17.12C72.6479 17.528 72.8359 17.892 73.0839 18.212C73.3319 18.524 73.6359 18.776 73.9959 18.968C74.3639 19.152 74.7879 19.244 75.2679 19.244C75.7159 19.244 76.1119 19.172 76.4559 19.028C76.7999 18.884 77.0879 18.688 77.3199 18.44C77.5599 18.184 77.7399 17.888 77.8599 17.552C77.9799 17.208 78.0319 16.84 78.0159 16.448H75.2799V15.488H79.0359V20H78.3159L78.0159 18.932ZM80.7013 11.432H81.9133L86.4253 18.38H86.4493V11.432H87.5293V20H86.2813L81.8053 13.124H81.7813V20H80.7013V11.432ZM95.0773 14.732C95.1973 14.652 95.3253 14.564 95.4613 14.468C95.5973 14.372 95.7213 14.264 95.8333 14.144C95.9453 14.024 96.0373 13.892 96.1093 13.748C96.1813 13.596 96.2173 13.428 96.2173 13.244C96.2173 12.996 96.1293 12.784 95.9533 12.608C95.7773 12.424 95.5373 12.332 95.2333 12.332C94.9933 12.332 94.7693 12.408 94.5613 12.56C94.3533 12.704 94.2493 12.932 94.2493 13.244C94.2493 13.372 94.2733 13.5 94.3213 13.628C94.3773 13.756 94.4453 13.884 94.5253 14.012C94.6053 14.132 94.6933 14.252 94.7893 14.372C94.8853 14.492 94.9813 14.612 95.0773 14.732ZM97.2733 18.932C97.0173 19.332 96.6653 19.632 96.2173 19.832C95.7773 20.032 95.3213 20.132 94.8493 20.132C94.2733 20.132 93.8093 20.044 93.4573 19.868C93.1053 19.692 92.8333 19.48 92.6413 19.232C92.4493 18.984 92.3213 18.728 92.2573 18.464C92.2013 18.2 92.1733 17.98 92.1733 17.804C92.1733 17.468 92.2253 17.172 92.3293 16.916C92.4413 16.66 92.5853 16.432 92.7613 16.232C92.9453 16.024 93.1573 15.84 93.3973 15.68C93.6453 15.512 93.9053 15.356 94.1773 15.212C94.0573 15.044 93.9413 14.884 93.8293 14.732C93.7173 14.58 93.6133 14.428 93.5173 14.276C93.4293 14.116 93.3573 13.952 93.3013 13.784C93.2533 13.608 93.2293 13.412 93.2293 13.196C93.2293 12.964 93.2693 12.744 93.3493 12.536C93.4373 12.32 93.5613 12.132 93.7213 11.972C93.8893 11.804 94.0933 11.672 94.3333 11.576C94.5733 11.48 94.8493 11.432 95.1613 11.432C95.4253 11.432 95.6813 11.468 95.9293 11.54C96.1853 11.612 96.4093 11.724 96.6013 11.876C96.7933 12.02 96.9453 12.204 97.0573 12.428C97.1773 12.644 97.2373 12.896 97.2373 13.184C97.2373 13.44 97.1933 13.68 97.1053 13.904C97.0173 14.12 96.8973 14.32 96.7453 14.504C96.5933 14.688 96.4213 14.856 96.2293 15.008C96.0373 15.152 95.8373 15.284 95.6293 15.404L97.1773 17.288C97.3373 16.84 97.4293 16.396 97.4533 15.956H98.4253C98.4013 16.212 98.3733 16.432 98.3413 16.616C98.3173 16.792 98.2813 16.956 98.2333 17.108C98.1933 17.26 98.1413 17.412 98.0773 17.564C98.0133 17.708 97.9373 17.876 97.8493 18.068L99.5173 20H98.1853L97.2733 18.932ZM94.7413 15.86C94.5413 15.972 94.3493 16.088 94.1653 16.208C93.9893 16.328 93.8333 16.464 93.6973 16.616C93.5613 16.768 93.4533 16.94 93.3733 17.132C93.2933 17.316 93.2533 17.536 93.2533 17.792C93.2533 18.008 93.2973 18.208 93.3853 18.392C93.4813 18.568 93.6053 18.72 93.7573 18.848C93.9093 18.968 94.0813 19.064 94.2733 19.136C94.4733 19.208 94.6773 19.244 94.8853 19.244C95.2773 19.244 95.6253 19.152 95.9293 18.968C96.2413 18.784 96.5013 18.536 96.7093 18.224L94.7413 15.86ZM104.752 19.04H106.648C106.776 19.04 106.936 19.032 107.128 19.016C107.32 18.992 107.524 18.944 107.74 18.872C107.956 18.792 108.168 18.68 108.376 18.536C108.592 18.392 108.784 18.196 108.952 17.948C109.12 17.7 109.256 17.392 109.36 17.024C109.472 16.648 109.528 16.196 109.528 15.668C109.528 15.156 109.476 14.7 109.372 14.3C109.276 13.892 109.112 13.548 108.88 13.268C108.656 12.98 108.364 12.764 108.004 12.62C107.644 12.468 107.2 12.392 106.672 12.392H104.752V19.04ZM103.612 11.432H106.552C107.872 11.432 108.888 11.768 109.6 12.44C110.312 13.112 110.668 14.136 110.668 15.512C110.668 16.232 110.588 16.872 110.428 17.432C110.268 17.984 110.02 18.452 109.684 18.836C109.348 19.212 108.92 19.5 108.4 19.7C107.88 19.9 107.264 20 106.552 20H103.612V11.432ZM112.061 11.432H117.977V12.392H113.201V15.116H117.653V16.076H113.201V19.04H118.013V20H112.061V11.432ZM122.769 20H121.473L118.461 11.432H119.685L122.133 18.86H122.157L124.629 11.432H125.817L122.769 20ZM126.733 11.432H132.649V12.392H127.873V15.116H132.325V16.076H127.873V19.04H132.685V20H126.733V11.432ZM134.069 11.432H135.209V19.04H139.745V20H134.069V11.432ZM141.397 15.716C141.397 16.148 141.453 16.576 141.565 17C141.677 17.416 141.853 17.792 142.093 18.128C142.333 18.464 142.641 18.736 143.017 18.944C143.393 19.144 143.841 19.244 144.361 19.244C144.881 19.244 145.329 19.144 145.705 18.944C146.081 18.736 146.389 18.464 146.629 18.128C146.869 17.792 147.045 17.416 147.157 17C147.269 16.576 147.325 16.148 147.325 15.716C147.325 15.284 147.269 14.86 147.157 14.444C147.045 14.02 146.869 13.64 146.629 13.304C146.389 12.968 146.081 12.7 145.705 12.5C145.329 12.292 144.881 12.188 144.361 12.188C143.841 12.188 143.393 12.292 143.017 12.5C142.641 12.7 142.333 12.968 142.093 13.304C141.853 13.64 141.677 14.02 141.565 14.444C141.453 14.86 141.397 15.284 141.397 15.716ZM140.257 15.716C140.257 15.132 140.341 14.572 140.509 14.036C140.685 13.492 140.945 13.012 141.289 12.596C141.633 12.18 142.061 11.848 142.573 11.6C143.085 11.352 143.681 11.228 144.361 11.228C145.041 11.228 145.637 11.352 146.149 11.6C146.661 11.848 147.089 12.18 147.433 12.596C147.777 13.012 148.033 13.492 148.201 14.036C148.377 14.572 148.465 15.132 148.465 15.716C148.465 16.3 148.377 16.864 148.201 17.408C148.033 17.944 147.777 18.42 147.433 18.836C147.089 19.252 146.661 19.584 146.149 19.832C145.637 20.072 145.041 20.192 144.361 20.192C143.681 20.192 143.085 20.072 142.573 19.832C142.061 19.584 141.633 19.252 141.289 18.836C140.945 18.42 140.685 17.944 140.509 17.408C140.341 16.864 140.257 16.3 140.257 15.716ZM150.994 15.536H153.226C153.874 15.544 154.346 15.412 154.642 15.14C154.946 14.868 155.098 14.476 155.098 13.964C155.098 13.452 154.946 13.064 154.642 12.8C154.346 12.528 153.874 12.392 153.226 12.392H150.994V15.536ZM149.854 11.432H153.61C154.474 11.432 155.126 11.656 155.566 12.104C156.014 12.544 156.238 13.164 156.238 13.964C156.238 14.764 156.014 15.388 155.566 15.836C155.126 16.284 154.474 16.504 153.61 16.496H150.994V20H149.854V11.432ZM157.659 11.432H159.219L161.919 18.632L164.631 11.432H166.191V20H165.111V12.872H165.087L162.411 20H161.439L158.763 12.872H158.739V20H157.659V11.432ZM168.088 11.432H174.004V12.392H169.228V15.116H173.68V16.076H169.228V19.04H174.04V20H168.088V11.432ZM175.412 11.432H176.624L181.136 18.38H181.16V11.432H182.24V20H180.992L176.516 13.124H176.492V20H175.412V11.432ZM186.028 12.392H183.172V11.432H190.024V12.392H187.168V20H186.028V12.392Z" fill="black"/>
</svg>
