<svg width="66" height="34" viewBox="0 0 66 34" fill="none" xmlns="http://www.w3.org/2000/svg">
<rect x="0.5" y="0.5" width="65" height="33" rx="9.5" fill="white" stroke="black"/>
<path d="M23.676 20H22.488L20.532 12.8H20.508L18.528 20H17.34L15.144 11.432H16.308L17.988 18.56H18.012L19.932 11.432H21.168L23.064 18.56H23.088L24.828 11.432H25.968L23.676 20ZM27.7054 15.716C27.7054 16.148 27.7614 16.576 27.8734 17C27.9854 17.416 28.1614 17.792 28.4014 18.128C28.6414 18.464 28.9494 18.736 29.3254 18.944C29.7014 19.144 30.1494 19.244 30.6694 19.244C31.1894 19.244 31.6374 19.144 32.0134 18.944C32.3894 18.736 32.6974 18.464 32.9374 18.128C33.1774 17.792 33.3534 17.416 33.4654 17C33.5774 16.576 33.6334 16.148 33.6334 15.716C33.6334 15.284 33.5774 14.86 33.4654 14.444C33.3534 14.02 33.1774 13.64 32.9374 13.304C32.6974 12.968 32.3894 12.7 32.0134 12.5C31.6374 12.292 31.1894 12.188 30.6694 12.188C30.1494 12.188 29.7014 12.292 29.3254 12.5C28.9494 12.7 28.6414 12.968 28.4014 13.304C28.1614 13.64 27.9854 14.02 27.8734 14.444C27.7614 14.86 27.7054 15.284 27.7054 15.716ZM26.5654 15.716C26.5654 15.132 26.6494 14.572 26.8174 14.036C26.9934 13.492 27.2534 13.012 27.5974 12.596C27.9414 12.18 28.3694 11.848 28.8814 11.6C29.3934 11.352 29.9894 11.228 30.6694 11.228C31.3494 11.228 31.9454 11.352 32.4574 11.6C32.9694 11.848 33.3974 12.18 33.7414 12.596C34.0854 13.012 34.3414 13.492 34.5094 14.036C34.6854 14.572 34.7734 15.132 34.7734 15.716C34.7734 16.3 34.6854 16.864 34.5094 17.408C34.3414 17.944 34.0854 18.42 33.7414 18.836C33.3974 19.252 32.9694 19.584 32.4574 19.832C31.9454 20.072 31.3494 20.192 30.6694 20.192C29.9894 20.192 29.3934 20.072 28.8814 19.832C28.3694 19.584 27.9414 19.252 27.5974 18.836C27.2534 18.42 26.9934 17.944 26.8174 17.408C26.6494 16.864 26.5654 16.3 26.5654 15.716ZM36.1626 11.432H40.1946C41.0106 11.432 41.6466 11.632 42.1026 12.032C42.5666 12.432 42.7986 12.98 42.7986 13.676C42.7986 14.196 42.6786 14.652 42.4386 15.044C42.2066 15.436 41.8306 15.704 41.3106 15.848V15.872C41.5586 15.92 41.7586 16 41.9106 16.112C42.0706 16.224 42.1946 16.36 42.2826 16.52C42.3786 16.672 42.4466 16.844 42.4866 17.036C42.5346 17.228 42.5706 17.428 42.5946 17.636C42.6106 17.844 42.6226 18.056 42.6306 18.272C42.6386 18.488 42.6586 18.7 42.6906 18.908C42.7226 19.116 42.7666 19.316 42.8226 19.508C42.8866 19.692 42.9786 19.856 43.0986 20H41.8266C41.7466 19.912 41.6906 19.792 41.6586 19.64C41.6346 19.488 41.6186 19.32 41.6106 19.136C41.6026 18.944 41.5946 18.74 41.5866 18.524C41.5786 18.308 41.5546 18.096 41.5146 17.888C41.4826 17.68 41.4426 17.484 41.3946 17.3C41.3466 17.108 41.2706 16.944 41.1666 16.808C41.0626 16.664 40.9266 16.552 40.7586 16.472C40.5906 16.384 40.3666 16.34 40.0866 16.34H37.3026V20H36.1626V11.432ZM39.6786 15.38C39.9426 15.38 40.1946 15.36 40.4346 15.32C40.6746 15.28 40.8826 15.204 41.0586 15.092C41.2426 14.972 41.3866 14.816 41.4906 14.624C41.6026 14.424 41.6586 14.168 41.6586 13.856C41.6586 13.424 41.5386 13.072 41.2986 12.8C41.0586 12.528 40.6706 12.392 40.1346 12.392H37.3026V15.38H39.6786ZM44.3774 11.432H45.5174V15.704L49.8614 11.432H51.3374L47.7254 14.888L51.4814 20H50.0414L46.9454 15.668L45.5174 17V20H44.3774V11.432Z" fill="black"/>
</svg>
