<svg width="35" height="35" viewBox="0 0 35 35" fill="none" xmlns="http://www.w3.org/2000/svg">
<path d="M34.0068 17.002V16.9935C34.0068 11.9619 31.8162 7.44326 28.3376 4.3359L28.3206 4.32173C28.2776 4.27541 28.2296 4.23406 28.1774 4.19845L28.1746 4.19703C25.0851 1.48433 21.112 -0.00797983 17.0006 3.20939e-05C12.7044 3.20939e-05 8.78225 1.59552 5.79249 4.22821L5.81091 4.21262C5.77488 4.23995 5.74165 4.27081 5.71173 4.30472C3.91437 5.89623 2.47569 7.85289 1.491 10.0424C0.506312 12.2318 -0.00190847 14.6055 5.38535e-06 17.0063C5.38535e-06 22.0364 2.18777 26.5551 5.66355 29.6639L5.68055 29.678C5.72556 29.7291 5.77592 29.7752 5.83075 29.8155L5.83358 29.8169C8.9223 32.5256 12.8924 34.0157 17.0006 34.0082C21.1279 34.0146 25.115 32.5106 28.21 29.78L28.1916 29.7956C30.0201 28.2059 31.4858 26.242 32.4896 24.0367C33.4933 21.8314 34.0117 19.4363 34.0096 17.0133V17.0034L34.0068 17.002ZM27.6844 28.0613C26.8421 27.38 25.9362 26.7811 24.9794 26.2731L24.8873 26.2278C25.7559 23.724 26.2787 20.8377 26.3283 17.8352V17.8125H32.3659C32.1623 21.6969 30.4904 25.3589 27.6886 28.057L27.6844 28.0613ZM17.8139 25.9288C19.6318 26.0265 21.3308 26.4261 22.8979 27.0765L22.7959 27.0397C21.5405 29.9019 19.7735 31.8686 17.8139 32.3008V25.9288ZM17.8139 24.3078V17.8125H24.7116C24.6569 20.5022 24.1905 23.1677 23.3287 25.7162L23.3839 25.5306C21.6247 24.8076 19.7537 24.3943 17.8536 24.3092L17.8153 24.3078H17.8139ZM17.8139 16.1915V9.69621C19.7653 9.60715 21.6864 9.17997 23.4916 8.43371L23.3797 8.4748C24.1661 10.7688 24.6492 13.4129 24.7116 16.1617V16.1915H17.8139ZM17.8139 8.07522V1.70604C19.7735 2.13821 21.5405 4.09643 22.7959 6.96717C21.3308 7.57646 19.6318 7.97462 17.855 8.07381L17.8139 8.07522ZM21.8579 2.40743C23.5275 2.96434 25.0891 3.80406 26.4743 4.88992L26.4417 4.86442C25.814 5.35752 25.1098 5.82227 24.3673 6.2261L24.2879 6.26578C23.688 4.84986 22.863 3.54024 21.8451 2.38759L21.8579 2.40318V2.40743ZM16.1901 1.71029V8.07522C14.4422 7.98606 12.7227 7.59786 11.106 6.92749L11.2081 6.96433C12.4692 4.1021 14.2333 2.13679 16.1929 1.70462L16.1901 1.71029ZM9.71744 6.26153C8.94935 5.84828 8.2175 5.37097 7.52967 4.83466L7.56368 4.86017C8.90855 3.80617 10.4213 2.98611 12.0384 2.43435L12.1461 2.40176C11.1548 3.52318 10.3471 4.79429 9.75286 6.16801L9.71744 6.26153ZM16.1929 9.69479V16.1901H9.29519C9.35754 13.4115 9.84071 10.7674 10.6824 8.28776L10.6271 8.47338C12.3856 9.19528 14.2556 9.60801 16.1546 9.69338L16.1929 9.69479ZM16.1929 17.8111V24.3064C14.2415 24.3954 12.3204 24.8226 10.5152 25.5689L10.6271 25.5278C9.84071 23.2352 9.35754 20.5897 9.29519 17.8408V17.8111H16.1929ZM16.1929 25.9274V32.2965C14.2333 31.8644 12.4663 29.9062 11.2109 27.0354C12.676 26.4261 14.375 26.0294 16.1518 25.9302L16.1929 25.9274ZM12.1546 31.5952C10.4854 31.0399 8.92386 30.2021 7.53817 29.1183L7.57218 29.1438C8.19989 28.6507 8.90411 28.186 9.64659 27.7821L9.72594 27.7425C10.3209 29.159 11.1458 30.4674 12.1673 31.615L12.1546 31.6008V31.5952ZM24.2893 27.7411C25.1112 28.1874 25.8154 28.6507 26.4771 29.1679L26.4431 29.1424C25.0982 30.1964 23.5855 31.0165 21.9684 31.5682L21.8607 31.6008C22.852 30.4799 23.6597 29.2093 24.2539 27.836L24.2893 27.7439V27.7411ZM32.3659 16.1915H26.3283C26.2849 13.2598 25.779 10.3533 24.8292 7.57929L24.8873 7.77483C25.8882 7.24781 26.8359 6.62524 27.7169 5.91579L27.6829 5.9413C30.4789 8.62929 32.1515 12.2777 32.3631 16.1504L32.3645 16.1901L32.3659 16.1915ZM6.32243 5.94271C7.13859 6.60585 8.05536 7.21372 9.02739 7.7309L9.11949 7.77625C8.2509 10.28 7.72804 13.1663 7.67845 16.1688V16.1915H1.63942C1.84302 12.3071 3.51496 8.64513 6.31676 5.94697L6.32243 5.94271ZM1.64083 17.8125H7.67845C7.72189 20.7442 8.22782 23.6507 9.17758 26.4247L9.11949 26.2292C8.05536 26.7945 7.14001 27.4024 6.28984 28.0882L6.32385 28.0627C3.52783 25.3747 1.85531 21.7263 1.64367 17.8536L1.64225 17.8139L1.64083 17.8125Z" fill="black"/>
</svg>
